<svg width="18" height="20" viewBox="0 0 18 20" fill="none" xmlns="http://www.w3.org/2000/svg">
<path d="M3.68521 6.51245C2.72611 6.51245 2.22455 8.26678 2.22455 9.99987C2.22455 11.733 2.72641 13.4873 3.68521 13.4873C4.644 13.4873 5.14586 11.733 5.14586 9.99987C5.14586 8.26678 4.6443 6.51245 3.68521 6.51245ZM3.68521 12.9945C3.38312 12.9945 2.79533 11.9375 2.79533 9.99987C2.79533 8.06221 3.38312 7.00552 3.68521 7.00552C3.9873 7.00552 4.57508 8.06247 4.57508 9.99987C4.57508 11.9373 3.9873 12.9945 3.68521 12.9945Z" fill="#E2E2E2"/>
<path d="M14.1776 0.493069C15.7478 0.493069 17.4292 4.31305 17.4292 9.99987C17.4292 15.6867 15.7478 19.5067 14.1776 19.5067C13.4714 19.5067 12.7461 18.7277 12.1598 17.3563H13.4708C15.1476 17.3563 16.0527 13.566 16.0527 9.99987C16.0527 6.43377 15.1479 2.64343 13.4708 2.64343H12.1595C12.7458 1.27228 13.472 0.493069 14.1776 0.493069ZM3.82242 19.5067C2.25216 19.5067 0.570783 15.6864 0.570783 9.99987C0.570783 4.31331 2.25216 0.493069 3.82242 0.493069C5.39268 0.493069 7.07406 4.31305 7.07406 9.99987C7.07406 15.6867 5.39299 19.5067 3.82242 19.5067Z" fill="#E2E2E2"/>
<path d="M7.64485 9.99987C7.64485 7.53321 7.28477 5.02433 6.62351 3.1365H13.4702C13.8251 3.1365 14.3661 3.63612 14.8191 5.03875C15.246 6.36086 15.4813 8.1228 15.4813 9.99987C15.4813 11.8769 15.246 13.6391 14.8191 14.961C14.3661 16.3636 13.8254 16.8632 13.4702 16.8632H11.8407H6.62381C7.28477 14.9754 7.64485 12.4665 7.64485 9.99987Z" fill="#E2E2E2"/>
</svg>
